# AST/ASF file generated using VICON BodyLanguage
# -----------------------------------------------
:version 1.10
:name VICON
:units
  mass 1.0
  length 0.45
  angle deg
:documentation
   .ast/.asf automatically generated from VICON data using
   VICON BodyBuilder and BodyLanguage model FoxedUp or BRILLIANT.MOD
:root
   order TX TY TZ RX RY RZ
   axis XYZ
   position 0 0 0  
   orientation 0 0 0 
:bonedata
  begin
     id 1 
     name lhipjoint
     direction 0.521452 -0.77106 0.36545 
     length 2.0933 
     axis 0 0 0  XYZ
  end
  begin
     id 2 
     name lfemur
     direction 0.34202 -0.939693 0  
     length 6.83441  
     axis 0 0 20  XYZ
    dof rx ry rz
    limits (-160.0 20.0)
           (-70.0 70.0)
           (-60.0 70.0)
  end
  begin
     id 3 
     name ltibia
     direction 0.34202 -0.939693 0   
     length 7.28749   
     axis 0 0 20   XYZ
    dof rx
    limits (-10.0 170.0)
  end
  begin
     id 4 
     name lfoot
     direction 0.100608 -0.276418 0.955757   
     length 1.52195   
     axis -90 7.62852e-016 20   XYZ
    dof rx rz
    limits (-45.0 90.0)
           (-70.0 20.0)
  end
  begin
     id 5 
     name ltoes
     direction 1.53558e-011 -4.21907e-011 1   
     length 0.770459   
     axis -90 7.62852e-016 20   XYZ
    dof rx
    limits (-90.0 20.0)
  end
  begin
     id 6 
     name rhipjoint
     direction -0.488071 -0.788702 0.373812   
     length 2.04648  
     axis 0 0 0  XYZ 
  end
  begin
     id 7 
     name rfemur
     direction -0.34202 -0.939693 0   
     length 6.92583   
     axis 0 0 -20   XYZ
    dof rx ry rz
    limits (-160.0 20.0)
           (-70.0 70.0)
           (-70.0 60.0)
  end
  begin
     id 8 
     name rtibia
     direction -0.34202 -0.939693 0   
     length 7.41043   
     axis 0 0 -20   XYZ
    dof rx
    limits (-10.0 170.0)
 end
 begin
     id 9 
     name rfoot
     direction -0.0784433 -0.215521 0.973343   
     length 1.67708  
     axis -90 -7.62852e-016 -20   XYZ
    dof rx rz
    limits (-45.0 90.0)
           (-20.0 70.0)
  end
  begin
     id 10 
     name rtoes
     direction -1.53551e-011 -4.21842e-011 1   
     length 0.849787   
     axis -90 -7.62852e-016 -20   XYZ
    dof rx
    limits (-90.0 20.0)
  end
  begin
     id 11 
     name lowerback
     direction -0.0122332 0.997575 -0.0685192   
     length 1.98724   
     axis 0 0 0   XYZ
    dof rx ry rz
    limits (-20.0 45.0)
           (-30.0 30.0)
           (-30.0 30.0)
  end
  begin
     id 12 
     name upperback
     direction 0.0182347 0.999724 -0.0148421   
     length 1.99029   
     axis 0 0 0   XYZ
    dof rx ry rz
    limits (-20.0 45.0)
           (-30.0 30.0)
           (-30.0 30.0)
  end
  begin
     id 13 
     name thorax
     direction 0.0242908 0.99956 0.0170184   
     length 1.99573   
     axis 0 0 0   XYZ
    dof rx ry rz
    limits (-20.0 45.0)
           (-30.0 30.0)
           (-30.0 30.0)
  end
  begin
     id 14 
     name lowerneck
     direction 0.0654488 0.985533 0.156338   
     length 1.4285   
     axis 0 0 0   XYZ
    dof rx ry rz
    limits (-20.0 45.0)
           (-30.0 30.0)
           (-30.0 30.0)
  end
  begin
     id 15 
     name upperneck
     direction -0.02953 0.998556 -0.0448842   
     length 1.44709   
     axis 0 0 0   XYZ
    dof rx ry rz
    limits (-20.0 45.0)
           (-30.0 30.0)
           (-30.0 30.0)
  end
  begin
     id 16
     name head
     direction -0.0155588 0.999386 -0.0314063  
     length 1.44689  
     axis 0 0 0   XYZ
    dof rx ry rz
    limits (-20.0 45.0)
           (-30.0 30.0)
           (-30.0 30.0)
  end
  begin
     id 17 
     name lclavicle
     direction 0.968229 0.236071 -0.0824755  
     length 3.60593  
     axis 0 0 0   XYZ
    dof ry rz
    limits (-20.0 10.0)
           (0.0 20.0)
  end
  begin
     id 18 
     name lhumerus
     direction 1 -4.48968e-011 7.8138e-029   
     length 5.06035   
     axis 180 -30 -90   XYZ
    dof rx ry rz
    limits (-60.0 90.0)
           (-90.0 90.0)
           (-90.0 90.0)
  end
  begin
     id 19
     name lradius
     direction 1 -4.48967e-011 9.02887e-028   
     length 3.1478   
     axis 180 -30 -90   XYZ
    dof rx
    limits (-10.0 170.0)
  end
  begin
     id 20
     name lwrist
     direction 1 -4.48961e-011 7.20928e-028   
     length 1.5739   
     axis -5.52449e-016 90 90   XYZ
    dof ry
    limits (-180.0 0.0)
 end
  begin
     id 21 
     name lhand
     direction 1 -4.48972e-011 1.44186e-027   
     length 0.606747   
     axis -9.20027e-016 90 90   XYZ
    dof rx rz
    limits (-90.0 90.0)
           (-45.0 45.0)
  end
  begin
     id 22 
     name lfingers
     direction 1 -4.48943e-011 2.88371e-027   
     length 0.489175   
     axis -1.84005e-015 90 90   XYZ
    dof rx
    limits (0.0 90.0)
  end
  begin
     id 23
     name lthumb
     direction 0.707107 -6.34917e-011 0.707107   
     length 0.70236   
     axis -90 45 2.85299e-015   XYZ
    dof rx rz
    limits (-45.0 45.0)
           (-45.0 45.0)
  end
  begin
     id 24 
     name rclavicle
     direction -0.978165 0.207816 0.0022268   
     length 3.35425  
     axis 0 0 0   XYZ 
    dof ry rz
    limits (-10.0 20.0)
           (-20.0 0.0)
  end
  begin
     id 25 
     name rhumerus
     direction -1 -4.48964e-011 -4.02159e-027  
     length 5.12273   
     axis 180 30 90   XYZ
    dof rx ry rz
    limits (-90.0 60.0)
           (-90.0 90.0)
           (-90.0 90.0)
  end
  begin
     id 26 
     name rradius
     direction -1 -4.48966e-011 1.62746e-027   
     length 3.422   
     axis 180 30 90   XYZ
    dof rx
    limits (-10.0 170.0)
  end
  begin
     id 27 
     name rwrist
     direction -1 -4.4896e-011 7.20928e-028   
     length 1.711   
     axis -5.52449e-016 -90 -90   XYZ
    dof ry
    limits (-180.0 0.0)
  end
  begin
     id 28
     name rhand
     direction -1 -4.48979e-011 1.44186e-027   
     length 0.704599   
     axis -9.20027e-016 -90 -90   XYZ
    dof rx rz
    limits (-90.0 90.0)
           (-45.0 45.0)
  end
  begin
     id 29
     name rfingers
     direction -1 -4.48962e-011 2.88371e-027   
     length 0.568066   
     axis -1.84005e-015 -90 -90   XYZ
    dof rx
    limits (0.0 90.0)
  end
  begin
     id 30
     name rthumb
     direction -0.707107 -6.34949e-011 0.707107   
     length 0.815633   
     axis -90 -45 -2.85299e-015   XYZ
    dof rx rz
    limits (-45.0 45.0)
           (-45.0 45.0)
  end
:hierarchy
  begin
    root lhipjoint rhipjoint lowerback
    lhipjoint lfemur
    lfemur ltibia
    ltibia lfoot
    lfoot ltoes
    rhipjoint rfemur
    rfemur rtibia
    rtibia rfoot
    rfoot rtoes
    lowerback upperback
    upperback thorax
    thorax lowerneck lclavicle rclavicle
    lowerneck upperneck
    upperneck head
    lclavicle lhumerus
    lhumerus lradius
    lradius lwrist
    lwrist lhand lthumb
    lhand lfingers
    rclavicle rhumerus
    rhumerus rradius
    rradius rwrist
    rwrist rhand rthumb
    rhand rfingers
  end

#!OML:ASF E:\id_vita\Project 1\Capture day 1\Session 1\Male1.ASF
:FULLY-SPECIFIED
:DEGREES
247
root 1.93508 16.2875 -0.242969 -232.205 83.3639 -241.135
lowerback -3.0968 -0.588377 -7.2128
upperback 2.60531 -0.249504 -2.33104
thorax 4.48054 -0.280475 1.60408
lowerneck -3.0937 -1.28485 8.15448
upperneck 17.1506 -1.93555 -0.991612
head 5.60744 -0.347994 -1.75648
rclavicle 1.35174e-014 2.42517e-014
rhumerus -31.7485 -21.8006 -79.2558
rradius 7.09426
rwrist 29.1032
rhand -20.9217 32.8824
rfingers 7.12502
rthumb 5.44996 2.97252
lclavicle 1.35174e-014 2.42517e-014
lhumerus -16.8301 6.48016 81.859
lradius 22.7801
lwrist -2.11502
lhand -14.0359 46.0385
lfingers 7.12502
lthumb 12.0945 75.669
rfemur -18.1047 -2.25914 12.7288
rtibia 64.8163
rfoot -8.13152 5.87276
rtoes -7.37649
lfemur -19.0314 -5.72204 -27.8934
ltibia 35.0216
lfoot -22.2635 -5.92428
ltoes -0.920719
248
root 2.05448 16.288 -0.254905 -233.734 83.5406 -242.525
lowerback -3.04199 -0.625687 -7.09594
upperback 2.5877 -0.316304 -2.27802
thorax 4.43472 -0.310281 1.59014
lowerneck -3.47685 -1.36324 7.90823
upperneck 17.8099 -2.06966 -0.886637
head 5.87725 -0.39513 -1.69998
rclavicle 3.77691e-015 -2.78299e-015
rhumerus -32.1354 -21.9933 -79.017
rradius 7.48823
rwrist 29.0578
rhand -21.2434 32.9624
rfingers 7.12502
rthumb 5.13934 3.04477
lclavicle 3.77691e-015 -2.78299e-015
lhumerus -16.2217 5.21726 82.5263
lradius 24.1592
lwrist -0.466007
lhand -14.6045 45.8079
lfingers 7.12502
lthumb 11.5461 75.4698
rfemur -19.4322 -2.27236 12.8106
rtibia 65.3565
rfoot -9.26492 4.54087
rtoes -6.76436
lfemur -18.2839 -5.74715 -27.8536
ltibia 34.8405
lfoot -22.3431 -5.81339
ltoes -0.839628
249
root 2.17782 16.2926 -0.261069 -234.369 83.6128 -243.075
lowerback -3.20651 -0.753865 -7.10882
upperback 2.7078 -0.463343 -2.26053
thorax 4.66711 -0.392528 1.60165
lowerneck -4.01034 -1.20076 8.22383
upperneck 18.4968 -1.90824 -1.01351
head 6.19129 -0.279009 -1.79423
rclavicle 1.46107e-014 1.59028e-014
rhumerus -32.2135 -22.1977 -78.9997
rradius 7.79116
rwrist 29.1315
rhand -21.1847 33.0459
rfingers 7.12502
rthumb 5.19602 3.12961
lclavicle 1.46107e-014 1.59028e-014
lhumerus -15.3888 4.27809 82.9944
lradius 25.5128
lwrist 0.823472
lhand -14.9649 45.6056
lfingers 7.12502
lthumb 11.1986 75.2867
rfemur -20.6798 -2.26168 12.9404
rtibia 65.6979
rfoot -10.3577 3.21312
rtoes -5.76877
lfemur -17.5661 -5.87502 -27.8031
ltibia 34.6435
lfoot -22.4524 -5.80426
ltoes -0.757449
250
root 2.30387 16.3034 -0.265383 -235.318 83.6563 -243.893
lowerback -3.43436 -0.902908 -7.18714
upperback 2.89301 -0.61958 -2.29274
thorax 5.00663 -0.483764 1.59403
lowerneck -4.46472 -1.03236 8.74951
upperneck 18.9814 -1.74868 -1.20182
head 6.42855 -0.162393 -1.93987
rclavicle 8.24956e-015 1.63003e-014
rhumerus -32.0483 -22.3981 -79.1179
rradius 7.79841
rwrist 29.2711
rhand -21.0904 32.8431
rfingers 7.12502
rthumb 5.28702 2.92901
lclavicle 8.24956e-015 1.63003e-014
lhumerus -14.3664 3.65503 83.276
lradius 26.6765
lwrist 1.76088
lhand -14.9744 45.4974
lfingers 7.12502
lthumb 11.1894 75.179
rfemur -21.7845 -2.22496 12.9887
rtibia 65.8345
rfoot -11.4798 2.17716
rtoes -3.63075
lfemur -16.8533 -5.91346 -27.8024
ltibia 34.4956
lfoot -22.5332 -5.91005
ltoes -0.845997
251
root 2.42259 16.298 -0.274562 -237.32 83.7688 -245.779
lowerback -3.73803 -0.975761 -7.17114
upperback 3.11093 -0.670819 -2.31781
thorax 5.41457 -0.522628 1.54688
lowerneck -4.82648 -1.03602 8.7366
upperneck 19.285 -1.80995 -1.11196
head 6.58794 -0.175212 -1.91916
rclavicle 1.45113e-014 3.33958e-014
rhumerus -31.8263 -22.6704 -79.1588
rradius 7.80169
rwrist 29.3411
rhand -21.0375 32.8917
rfingers 7.12502
rthumb 5.33811 2.9789
lclavicle 1.45113e-014 3.33958e-014
lhumerus -13.354 3.19372 83.5857
lradius 27.8774
lwrist 2.59875
lhand -14.8649 45.3176
lfingers 7.12502
lthumb 11.2951 74.9934
rfemur -22.9689 -2.2076 13.0085
rtibia 65.822
rfoot -12.6385 1.20368
rtoes -2.22007
lfemur -16.2256 -5.76524 -27.8574
ltibia 34.4053
lfoot -22.6278 -5.92099
ltoes -0.999508
